<?xml version="1.0" encoding="UTF-8" standalone="no"?>
<svg xmlns="http://www.w3.org/2000/svg" viewBox="0 0 1023 909" preserveAspectRatio="xMidYMid meet" role="img" aria-label="AltCrew">
  <g transform="translate(0,909) scale(0.1,-0.1)" fill="currentColor" stroke="none">
    <path d="M3710 4085 l0 -665 -125 0 -125 0 2 627 3 626 105 38 c58 21 113 38
123 38 16 1 17 -37 17 -664z m413 403 l2 -143 100 -1 c55 -1 115 -2 133 -3
l32 -1 0 -110 0 -109 -132 -3 -133 -3 -3 -90 c-5 -131 4 -185 41 -246 37 -63
112 -113 182 -124 l45 -6 0 -120 0 -119 -49 0 c-124 0 -269 79 -355 192 -104
136 -118 221 -114 658 l3 295 120 41 c66 23 121 40 123 39 2 -2 4 -68 5 -147z
m1707 -243 c0 -114 -2 -125 -18 -125 -44 0 -126 -34 -163 -67 -22 -20 -141
-147 -264 -282 -123 -135 -246 -261 -273 -279 -103 -70 -239 -97 -364 -72
-241 47 -411 292 -370 532 27 156 126 287 268 355 78 38 80 38 204 38 121 0
128 -1 191 -32 35 -18 82 -47 103 -65 l38 -33 -37 -45 c-21 -25 -55 -64 -76
-87 l-39 -43 -54 30 c-99 56 -203 50 -278 -18 -52 -47 -78 -102 -78 -170 0
-93 54 -177 135 -208 65 -24 158 -16 209 18 21 15 120 116 218 225 228 251
303 327 354 364 72 50 152 75 282 88 9 1 12 -30 12 -124z m-2845 93 c22 -6 52
-16 68 -24 26 -14 27 -14 27 11 l0 25 119 0 119 0 7 -382 c4 -211 5 -419 3
-463 l-3 -80 -122 -3 c-118 -2 -123 -2 -123 18 0 11 -1 20 -2 20 -2 0 -28 -9
-58 -21 -68 -26 -188 -35 -259 -20 -83 18 -161 61 -227 126 -184 181 -192 460
-20 652 120 134 294 186 471 141z m3417 -16 c65 -23 125 -62 199 -130 l52 -48
-204 -225 c-112 -124 -213 -236 -224 -249 l-20 -23 56 6 c99 10 105 14 332
265 l139 152 -41 123 c-23 67 -41 128 -41 135 0 9 31 12 123 12 l123 0 54
-165 54 -165 -30 -32 c-17 -18 -117 -128 -222 -244 -240 -266 -302 -308 -471
-321 -214 -16 -410 117 -481 328 -18 53 -21 81 -18 159 3 85 8 104 41 173 63
133 177 227 320 263 68 18 188 11 259 -14z m1083 -214 c39 -125 73 -230 76
-232 3 -3 16 27 29 67 14 40 50 144 81 232 l57 160 127 3 127 3 -8 -23 c-4
-13 -73 -219 -154 -458 l-148 -435 -109 -3 -109 -3 -69 225 c-38 124 -71 224
-73 221 -2 -2 -35 -102 -72 -222 l-68 -218 -107 0 -108 0 -37 111 -37 111 87
101 c85 97 89 104 120 204 17 57 52 167 76 246 l45 143 102 -3 102 -3 70 -227z
m-1945 -508 l0 -180 -125 0 -125 0 0 31 c0 24 25 61 122 180 67 82 123 149
125 149 2 0 3 -81 3 -180z" />
    <path d="M2810 4101 c-132 -41 -197 -159 -159 -294 43 -157 281 -200 388 -71
75 92 68 221 -18 305 -62 59 -139 81 -211 60z" />
    <path d="M6183 4096 c-22 -8 -55 -23 -72 -35 -59 -43 -103 -151 -87 -216 6
-24 14 -17 131 112 69 76 125 141 125 146 0 11 -50 7 -97 -7z" />
  </g>
</svg>
