<svg width="8603" height="2094" viewBox="0 0 8603 2094" fill="none" xmlns="http://www.w3.org/2000/svg">
<path d="M6664.62 1077.28L6135.5 1656.56L6332.5 1985.06L6424 1915.06L6499 1840.06L7094.9 1173.68C7100.21 1167.74 7101.9 1159.39 7099.3 1151.86L6940.11 688.904C6937.05 680.022 6928.69 674.059 6919.3 674.059H6566.07C6550.9 674.059 6540.28 689.052 6545.31 703.363L6669.13 1055.14C6671.82 1062.79 6670.09 1071.29 6664.62 1077.28Z" fill="white"/>
<path d="M1458 1361.06C1458 1763.67 1131.62 2090.06 729 2090.06C326.384 2090.06 0 1763.67 0 1361.06C0 958.443 326.384 632.059 729 632.059C1131.62 632.059 1458 958.443 1458 1361.06ZM384.463 1361.06C384.463 1551.34 538.718 1705.6 729 1705.6C919.282 1705.6 1073.54 1551.34 1073.54 1361.06C1073.54 1170.78 919.282 1016.52 729 1016.52C538.718 1016.52 384.463 1170.78 384.463 1361.06Z" fill="white"/>
<rect width="377" height="1458" transform="translate(1081 632.059)" fill="white"/>
<path d="M2047 1.05859L1671.5 133.059V2074.56H2047V1.05859Z" fill="white" stroke="#A4A4A4" stroke-width="1.5"/>
<path d="M2683 183.059L2308 314.059V1348.06H2683V183.059Z" fill="white"/>
<path d="M2683 653.059V992.059H3089V653.059H2683Z" fill="white"/>
<path d="M4848.5 1535.17V2073.56C4848.5 2074.66 4847.6 2075.56 4846.5 2075.56H4481.5C4480.39 2075.56 4479.5 2074.69 4479.5 2073.59L4479.5 2009.06C4479.5 1993.06 4486 1971.06 4509.5 1943.56C4531.53 1917.78 4810.2 1576.47 4844.95 1533.91C4846.14 1532.45 4848.5 1533.29 4848.5 1535.17Z" fill="white"/>
<path d="M4108.2 1537.04C4055.56 1588.79 3967.5 1657.06 3967.5 1657.06L3960 1661.06L4159.18 1988.54C4159.18 1988.54 4199.29 1964.62 4223.15 1946.74C4241.01 1933.36 4250.42 1925.08 4267.14 1910.34C4293.96 1886.68 4307.42 1871.75 4332.61 1846.4C4353.37 1825.53 4364.66 1813.49 4385.09 1792.3C4565.47 1605.27 4661.04 1495.27 4834.42 1301.94C4848.88 1285.82 4856.79 1276.61 4871.41 1260.63C4890.63 1239.62 4902.31 1228.65 4921.39 1207.51C4941.81 1184.9 4951.17 1170.39 4972.37 1148.49L4973.43 1147.4C4995.74 1124.36 5008.74 1110.93 5034.85 1091.44C5058.88 1073.5 5073.58 1064.83 5100.32 1051.11C5129.03 1036.38 5146.06 1029.64 5176.79 1019.63C5200.57 1011.89 5214.14 1007.87 5238.77 1003.4C5258.13 999.888 5287.32 997.672 5294.9 997.135C5295.95 997.06 5296.75 996.188 5296.75 995.134V635.448C5296.75 634.381 5295.93 633.503 5294.86 633.457C5285.85 633.07 5246.5 631.567 5220.28 633.542C5190.74 635.766 5174.29 638.842 5145.31 644.854C5114.82 651.178 5098.15 656.622 5068.34 665.511C5035.02 675.442 5016.13 680.67 4983.87 693.545C4949.32 707.333 4930.27 716.177 4897.9 734.368C4860.34 755.476 4840.46 769.565 4806.43 795.847C4760.7 831.168 4738.6 855.258 4697.97 896.181C4660.31 934.122 4642.56 958.488 4605.51 997.007C4580.36 1023.15 4565.46 1037.04 4540.03 1062.91C4364.39 1241.66 4286.95 1361.31 4108.2 1537.04Z" fill="white" stroke="#A4A4A4"/>
<path d="M4164.68 1985.2C4046.74 2056.38 3911.05 2092.68 3773.33 2089.91C3635.61 2087.14 3501.49 2045.41 3386.52 1969.54C3271.54 1893.68 3180.41 1786.8 3123.68 1661.27C3066.96 1535.74 3046.96 1396.71 3066 1260.29C3085.04 1123.86 3142.34 995.621 3231.27 890.424C3320.2 785.228 3437.12 707.379 3568.47 665.898C3699.83 624.417 3840.24 621 3973.46 656.044C4106.68 691.088 4227.24 763.158 4321.18 863.906L4039.99 1126.1C3995.59 1078.48 3938.61 1044.42 3875.65 1027.86C3812.69 1011.3 3746.33 1012.91 3684.25 1032.52C3622.17 1052.12 3566.91 1088.91 3524.88 1138.63C3482.85 1188.35 3455.77 1248.96 3446.77 1313.43C3437.77 1377.91 3447.22 1443.62 3474.03 1502.94C3500.84 1562.27 3543.91 1612.78 3598.25 1648.64C3652.59 1684.49 3715.98 1704.22 3781.07 1705.53C3846.16 1706.84 3910.29 1689.68 3966.02 1656.04L4164.68 1985.2Z" fill="white"/>
<path d="M6333.47 1209.49L6047.4 960.059L5393 1710.58L5679.06 1960.01L6333.47 1209.49Z" fill="white" stroke="#A4A4A4" stroke-width="1.5"/>
<path d="M6333.68 1985.2C6211.39 2059.01 6070.11 2095.26 5927.4 2089.46C5784.68 2083.66 5646.82 2036.06 5530.92 1952.58C5415.02 1869.1 5326.2 1753.41 5275.49 1619.88C5224.78 1486.35 5214.41 1340.87 5245.68 1201.5C5276.94 1062.13 5348.45 935.014 5451.34 835.94C5554.23 736.866 5683.95 670.199 5824.4 644.219C5964.85 618.24 6109.84 634.091 6241.36 689.806C6372.88 745.521 6485.13 838.644 6564.18 957.609L6290 1259.06C6252.64 1202.83 6241.36 1107.34 6091.39 1043.81C6029.24 1017.48 5960.71 1009.99 5894.33 1022.27C5827.95 1034.55 5766.64 1066.06 5718.02 1112.88C5669.39 1159.7 5635.59 1219.78 5620.82 1285.65C5606.04 1351.52 5610.94 1420.27 5634.91 1483.38C5658.88 1546.49 5700.85 1601.17 5755.63 1640.62C5810.4 1680.08 5875.56 1702.57 5943.01 1705.31C6010.46 1708.05 6077.23 1690.92 6135.02 1656.04L6333.68 1985.2Z" fill="white"/>
<path d="M7182.27 1435.95L6920.75 1732.14C6919.95 1733.05 6919.5 1734.23 6919.5 1735.45V1753.23C6919.5 1753.78 6919.59 1754.32 6919.77 1754.84L7028.54 2074.7C7028.81 2075.51 7029.58 2076.06 7030.43 2076.06H7360.04C7360.91 2076.06 7361.68 2075.5 7361.94 2074.67L7575.57 1407.08C7576.17 1405.22 7578.8 1405.23 7579.39 1407.09L7788.06 2074.66C7788.32 2075.49 7789.1 2076.06 7789.97 2076.06H8121.57C8122.42 2076.06 8123.19 2075.51 8123.46 2074.7L8601.6 673.204C8602.04 671.907 8601.08 670.559 8599.7 670.559H8217.91C8217.07 670.559 8216.31 671.091 8216.03 671.889L7959.03 1395.35C7958.38 1397.17 7955.79 1397.11 7955.23 1395.27L7733.93 671.973C7733.68 671.133 7732.9 670.559 7732.02 670.559H7423.98C7423.1 670.559 7422.32 671.132 7422.07 671.973L7194.86 1413.45C7192.32 1421.76 7188.02 1429.43 7182.27 1435.95Z" fill="white" stroke="#A4A4A4"/>
<path d="M2524 1863.56C2295 1634.06 2308.5 1348.06 2308.5 1348.06H2683.5C2683.5 1348.06 2696 1506.56 2798.5 1608.56C2895.11 1704.7 3055.26 1728.44 3073.33 1730.84C3074.4 1730.99 3075.26 1731.68 3075.67 1732.68L3085.88 1757.08C3086.29 1758.06 3086.5 1759.1 3086.5 1760.16V2091.06C3086.5 2092.16 3085.82 2093.06 3084.71 2093.04C3058.23 2092.64 2743.23 2083.27 2524 1863.56Z" fill="white"/>
</svg>
